<svg data-v-fde0c5aa="" xmlns="http://www.w3.org/2000/svg" viewBox="0 0 0 0" class="font"><!----><defs data-v-fde0c5aa=""><!----></defs><rect data-v-fde0c5aa="" fill="transparent" x="0" y="0" width="1000px" height="500px" class="logo-background-square"></rect><defs data-v-fde0c5aa=""><linearGradient data-v-fde0c5aa="" gradientTransform="rotate(25)" id="382bc33b-3e61-4a47-8ddc-d5341490fccc" x1="0%" y1="0%" x2="100%" y2="0%"><stop data-v-fde0c5aa="" offset="0%" stop-color="#6566CE" stop-opacity="1"></stop><stop data-v-fde0c5aa="" offset="100%" stop-color="#DBC1D0" stop-opacity="1"></stop></linearGradient></defs><g data-v-fde0c5aa="" id="d384cb2c-33cb-4de3-9374-ade9a0ffc2f3" fill="url(#382bc33b-3e61-4a47-8ddc-d5341490fccc)" transform="matrix(5.610098154888868,0,0,5.610098154888868,34.06732117445399,94.17017494299841)"><path d="M1.47 3.47L1.47 3.47L1.47 3.47Q1.86 3.32 2.21 3.21L2.21 3.21L2.21 3.21Q2.56 3.11 2.91 3.04L2.91 3.04L2.91 3.04Q3.25 2.98 3.61 2.96L3.61 2.96L3.61 2.96Q3.98 2.94 4.40 2.94L4.40 2.94L4.40 2.94Q5.03 2.94 5.66 3.04L5.66 3.04L5.66 3.04Q6.29 3.15 6.86 3.42L6.86 3.42L6.86 3.42Q7.41 3.67 7.81 4.11L7.81 4.11L7.81 4.11Q8.22 4.55 8.48 5.09L8.48 5.09L8.48 5.09Q8.74 5.63 8.84 6.23L8.84 6.23L8.84 6.23Q8.95 6.83 8.89 7.41L8.89 7.41L8.89 7.41Q8.81 8.33 8.46 9.12L8.46 9.12L8.46 9.12Q8.12 9.91 7.53 10.63L7.53 10.63L7.53 10.63Q7 11.26 6.33 11.74L6.33 11.74L6.33 11.74Q5.67 12.22 4.89 12.49L4.89 12.49L4.89 12.49Q4.28 12.70 3.70 12.76L3.70 12.76L3.70 12.76Q3.12 12.82 2.49 12.67L2.49 12.67L2.49 12.67Q2.46 12.61 2.31 12.60L2.31 12.60L2.31 12.60Q2.16 12.59 2.11 12.54L2.11 12.54L2.11 12.54Q1.95 12.54 1.86 12.52L1.86 12.52L1.86 12.52Q1.78 12.50 1.72 12.46L1.72 12.46L1.72 12.46Q1.65 12.42 1.58 12.36L1.58 12.36L1.58 12.36Q1.51 12.31 1.36 12.24L1.36 12.24L1.36 12.24Q1.19 11.83 1.13 11.19L1.13 11.19L1.13 11.19Q1.06 10.54 1.06 9.84L1.06 9.84L1.06 9.84Q1.05 9.14 1.08 8.47L1.08 8.47L1.08 8.47Q1.12 7.80 1.16 7.34L1.16 7.34L1.16 7.34Q1.15 7.14 1.16 6.79L1.16 6.79L1.16 6.79Q1.16 6.44 1.17 6.03L1.17 6.03L1.17 6.03Q1.18 5.61 1.20 5.18L1.20 5.18L1.20 5.18Q1.23 4.75 1.27 4.38L1.27 4.38L1.27 4.38Q1.30 4.02 1.35 3.77L1.35 3.77L1.35 3.77Q1.40 3.51 1.47 3.47ZM7.53 6.75L7.53 6.75L7.53 6.75Q7.53 5.87 7.26 5.36L7.26 5.36L7.26 5.36Q6.99 4.84 6.51 4.60L6.51 4.60L6.51 4.60Q6.03 4.35 5.40 4.33L5.40 4.33L5.40 4.33Q4.76 4.30 4.03 4.40L4.03 4.40L4.03 4.40Q3.99 4.40 3.82 4.42L3.82 4.42L3.82 4.42Q3.65 4.44 3.46 4.46L3.46 4.46L3.46 4.46Q3.26 4.48 3.10 4.51L3.10 4.51L3.10 4.51Q2.94 4.54 2.91 4.55L2.91 4.55L2.91 4.55Q2.86 4.59 2.81 4.65L2.81 4.65L2.81 4.65Q2.73 4.77 2.67 5.13L2.67 5.13L2.67 5.13Q2.62 5.49 2.60 5.97L2.60 5.97L2.60 5.97Q2.58 6.45 2.57 7.01L2.57 7.01L2.57 7.01Q2.56 7.56 2.58 8.06L2.58 8.06L2.58 8.06Q2.59 8.57 2.60 8.98L2.60 8.98L2.60 8.98Q2.62 9.39 2.63 9.59L2.63 9.59L2.63 9.59Q2.66 9.95 2.69 10.32L2.69 10.32L2.69 10.32Q2.73 10.68 2.76 11.05L2.76 11.05L2.76 11.05Q3.21 11.30 3.74 11.23L3.74 11.23L3.74 11.23Q4.27 11.16 4.78 10.91L4.78 10.91L4.78 10.91Q5.29 10.65 5.73 10.29L5.73 10.29L5.73 10.29Q6.17 9.93 6.45 9.59L6.45 9.59L6.45 9.59Q6.92 9.00 7.20 8.25L7.20 8.25L7.20 8.25Q7.49 7.50 7.52 6.75L7.52 6.75L7.53 6.75ZM11.82 4.93L11.82 4.93L11.82 4.93Q12.08 5.07 12.17 5.31L12.17 5.31L12.17 5.31Q12.26 5.54 12.21 5.79L12.21 5.79L12.21 5.79Q12.15 6.03 11.98 6.22L11.98 6.22L11.98 6.22Q11.80 6.41 11.54 6.45L11.54 6.45L11.54 6.45Q11.16 6.51 10.93 6.32L10.93 6.32L10.93 6.32Q10.70 6.13 10.65 5.86L10.65 5.86L10.65 5.86Q10.60 5.59 10.73 5.30L10.73 5.30L10.73 5.30Q10.86 5.01 11.23 4.86L11.23 4.86L11.23 4.86Q11.42 4.77 11.56 4.82L11.56 4.82L11.56 4.82Q11.70 4.87 11.82 4.93ZM7.99 15.47L7.99 15.47L7.99 15.47Q8.05 15.46 8.17 15.44L8.17 15.44L8.17 15.44Q8.29 15.41 8.41 15.39L8.41 15.39L8.41 15.39Q8.54 15.37 8.64 15.36L8.64 15.36L8.64 15.36Q8.74 15.34 8.76 15.36L8.76 15.36L8.76 15.36Q8.85 15.37 8.89 15.48L8.89 15.48L8.89 15.48Q8.93 15.60 8.97 15.67L8.97 15.67L8.97 15.67Q8.97 15.82 9.11 15.86L9.11 15.86L9.11 15.86Q9.25 15.90 9.43 15.88L9.43 15.88L9.43 15.88Q9.60 15.86 9.78 15.81L9.78 15.81L9.78 15.81Q9.95 15.75 10.04 15.71L10.04 15.71L10.04 15.71Q10.22 15.61 10.35 15.44L10.35 15.44L10.35 15.44Q10.47 15.27 10.55 15.07L10.55 15.07L10.55 15.07Q10.63 14.87 10.67 14.67L10.67 14.67L10.67 14.67Q10.71 14.46 10.74 14.27L10.74 14.27L10.74 14.27Q10.89 13.08 10.88 11.87L10.88 11.87L10.88 11.87Q10.86 10.65 10.86 9.46L10.86 9.46L10.86 9.46Q10.86 9.10 10.87 8.82L10.87 8.82L10.87 8.82Q10.88 8.54 10.86 8.22L10.86 8.22L10.86 8.22Q10.86 8.09 10.88 7.88L10.88 7.88L10.88 7.88Q10.91 7.66 10.91 7.57L10.91 7.57L10.91 7.57Q10.95 7.57 11.03 7.57L11.03 7.57L11.03 7.57Q11.12 7.56 11.21 7.55L11.21 7.55L11.21 7.55Q11.31 7.55 11.39 7.54L11.39 7.54L11.39 7.54Q11.47 7.53 11.51 7.55L11.51 7.55L11.51 7.55Q11.65 7.56 11.79 7.60L11.79 7.60L11.79 7.60Q11.93 7.64 12.04 7.66L12.04 7.66L12.04 7.66Q12.14 8.02 12.12 8.46L12.12 8.46L12.12 8.46Q12.10 8.89 12.08 9.27L12.08 9.27L12.08 9.27Q12.07 10.01 12.07 10.73L12.07 10.73L12.07 10.73Q12.07 11.45 12.04 12.19L12.04 12.19L12.04 12.19Q12.03 12.74 12.02 13.35L12.02 13.35L12.02 13.35Q12.01 13.96 11.91 14.53L11.91 14.53L11.91 14.53Q11.80 15.11 11.56 15.63L11.56 15.63L11.56 15.63Q11.33 16.16 10.85 16.53L10.85 16.53L10.85 16.53Q10.56 16.77 10.30 16.85L10.30 16.85L10.30 16.85Q10.04 16.93 9.67 16.95L9.67 16.95L9.67 16.95Q9.39 16.97 9.16 16.96L9.16 16.96L9.16 16.96Q8.92 16.95 8.71 16.88L8.71 16.88L8.71 16.88Q8.51 16.81 8.34 16.64L8.34 16.64L8.34 16.64Q8.16 16.46 8.02 16.14L8.02 16.14L8.02 16.14Q7.92 15.92 7.90 15.79L7.90 15.79L7.90 15.79Q7.87 15.67 7.99 15.47ZM17.88 7.53L17.88 7.53L17.88 7.53Q18.13 7.90 18.22 8.41L18.22 8.41L18.22 8.41Q18.31 8.93 18.33 9.50L18.33 9.50L18.33 9.50Q18.34 10.07 18.30 10.62L18.30 10.62L18.30 10.62Q18.27 11.17 18.26 11.59L18.26 11.59L18.24 11.61L18.24 11.61Q18.24 11.90 18.22 12.28L18.22 12.28L18.22 12.28Q18.20 12.66 18.20 12.85L18.20 12.85L18.20 12.85Q18.00 12.87 17.82 12.90L17.82 12.90L17.82 12.90Q17.64 12.94 17.44 12.94L17.44 12.94L17.44 12.94Q17.37 12.80 17.25 12.71L17.25 12.71L17.25 12.71Q17.12 12.63 17.11 12.46L17.11 12.46L17.11 12.46Q17.02 12.49 16.96 12.51L16.96 12.51L16.96 12.51Q16.90 12.53 16.84 12.56L16.84 12.56L16.84 12.56Q16.77 12.59 16.67 12.61L16.67 12.61L16.67 12.61Q16.58 12.64 16.42 12.68L16.42 12.68L16.42 12.68Q16.23 12.73 16.04 12.77L16.04 12.77L16.04 12.77Q15.85 12.81 15.65 12.81L15.65 12.81L15.65 12.81Q15.62 12.81 15.62 12.82L15.62 12.82L15.62 12.82Q15.18 12.82 14.75 12.74L14.75 12.74L14.75 12.74Q14.32 12.66 13.96 12.33L13.96 12.33L13.96 12.33Q13.50 11.94 13.50 11.34L13.50 11.34L13.50 11.34Q13.50 11.30 13.50 11.30L13.50 11.30L13.50 11.10L13.50 11.10Q13.50 10.72 13.72 10.43L13.72 10.43L13.72 10.43Q13.94 10.14 14.27 9.93L14.27 9.93L14.27 9.93Q14.60 9.72 14.98 9.58L14.98 9.58L14.98 9.58Q15.36 9.45 15.68 9.39L15.68 9.39L15.68 9.39Q16.00 9.34 16.34 9.34L16.34 9.34L16.34 9.34Q16.69 9.34 17.01 9.28L17.01 9.28L17.01 9.28Q17.00 9.06 17.00 8.82L17.00 8.82L17.00 8.82Q17.01 8.58 16.94 8.36L16.94 8.36L16.94 8.36Q16.86 8.05 16.63 7.92L16.63 7.92L16.63 7.92Q16.39 7.78 16.11 7.78L16.11 7.78L16.11 7.78Q15.82 7.77 15.53 7.85L15.53 7.85L15.53 7.85Q15.25 7.94 15.04 8.08L15.04 8.08L15.04 8.08Q14.80 8.23 14.62 8.44L14.62 8.44L14.62 8.44Q14.43 8.64 14.27 8.85L14.27 8.85L14.27 8.85Q14.24 8.85 14.16 8.79L14.16 8.79L14.16 8.79Q14.08 8.72 13.99 8.64L13.99 8.64L13.99 8.64Q13.90 8.57 13.83 8.50L13.83 8.50L13.83 8.50Q13.75 8.43 13.72 8.43L13.72 8.43L13.72 8.43Q13.97 7.77 14.50 7.32L14.50 7.32L14.50 7.32Q15.04 6.87 15.64 6.72L15.64 6.72L15.64 6.72Q16.25 6.57 16.86 6.75L16.86 6.75L16.86 6.75Q17.47 6.93 17.88 7.53ZM17.09 10.23L17.09 10.23L17.09 10.23Q17.04 10.19 16.93 10.20L16.93 10.20L16.93 10.20Q16.81 10.21 16.74 10.18L16.74 10.18L16.74 10.18Q16.37 10.18 16.10 10.25L16.10 10.25L16.10 10.25Q15.83 10.32 15.47 10.44L15.47 10.44L15.47 10.44Q15.44 10.46 15.40 10.46L15.40 10.46L15.40 10.46Q15.36 10.47 15.33 10.50L15.33 10.50L15.33 10.50Q15.16 10.57 14.97 10.74L14.97 10.74L14.97 10.74Q14.77 10.91 14.74 11.10L14.74 11.10L14.74 11.10Q14.74 11.17 14.74 11.22L14.74 11.22L14.74 11.22Q14.74 11.27 14.77 11.34L14.77 11.34L14.77 11.34Q14.84 11.54 15.20 11.60L15.20 11.60L15.20 11.60Q15.55 11.66 15.96 11.63L15.96 11.63L15.96 11.63Q16.37 11.61 16.70 11.51L16.70 11.51L16.70 11.51Q17.04 11.41 17.05 11.30L17.05 11.30L17.05 11.30Q17.08 11.06 17.09 10.77L17.09 10.77L17.09 10.77Q17.09 10.47 17.09 10.23ZM23.41 10.89L23.41 10.89L23.41 10.89Q23.49 10.74 23.59 10.43L23.59 10.43L23.59 10.43Q23.69 10.12 23.75 9.78L23.75 9.78L23.75 9.78Q23.81 9.44 23.81 9.13L23.81 9.13L23.81 9.13Q23.81 8.83 23.70 8.71L23.70 8.71L23.70 8.71Q23.45 8.41 23.11 8.29L23.11 8.29L23.11 8.29Q22.76 8.18 22.41 8.20L22.41 8.20L22.41 8.20Q22.06 8.22 21.73 8.38L21.73 8.38L21.73 8.38Q21.39 8.54 21.15 8.81L21.15 8.81L21.15 8.81Q20.96 9.03 20.84 9.31L20.84 9.31L20.84 9.31Q20.72 9.59 20.66 9.87L20.66 9.87L20.66 9.87Q20.54 10.58 20.80 10.95L20.80 10.95L20.80 10.95Q21.06 11.31 21.50 11.40L21.50 11.40L21.50 11.40Q21.94 11.48 22.46 11.33L22.46 11.33L22.46 11.33Q22.99 11.19 23.41 10.89ZM19.49 14.38L19.49 14.38L19.49 14.38Q19.63 14.14 19.85 13.99L19.85 13.99L19.85 13.99Q20.06 13.83 20.26 13.65L20.26 13.65L20.26 13.65Q20.41 13.85 20.59 14.04L20.59 14.04L20.59 14.04Q20.76 14.24 20.97 14.38L20.97 14.38L20.97 14.38Q21.17 14.53 21.41 14.62L21.41 14.62L21.41 14.62Q21.64 14.70 21.92 14.67L21.92 14.67L21.92 14.67Q22.86 14.57 23.23 14.04L23.23 14.04L23.23 14.04Q23.59 13.50 23.59 12.63L23.59 12.63L23.59 12.61L23.59 12.61Q23.59 12.46 23.58 12.30L23.58 12.30L23.58 12.30Q23.56 12.14 23.55 11.98L23.55 11.98L23.55 11.98Q23.25 12.17 22.94 12.32L22.94 12.32L22.94 12.32Q22.62 12.47 22.30 12.57L22.30 12.57L22.30 12.57Q21.97 12.67 21.62 12.68L21.62 12.68L21.62 12.68Q21.28 12.68 20.94 12.56L20.94 12.56L20.94 12.56Q20.22 12.31 19.85 11.79L19.85 11.79L19.85 11.79Q19.47 11.28 19.40 10.68L19.40 10.68L19.40 10.68Q19.32 10.07 19.51 9.42L19.51 9.42L19.51 9.42Q19.70 8.78 20.10 8.25L20.10 8.25L20.10 8.25Q20.50 7.71 21.06 7.38L21.06 7.38L21.06 7.38Q21.63 7.04 22.33 7.04L22.33 7.04L22.33 7.04Q22.74 7.04 23.11 7.19L23.11 7.19L23.11 7.19Q23.49 7.34 23.86 7.53L23.86 7.53L23.86 7.53Q23.90 7.41 23.95 7.30L23.95 7.30L23.95 7.30Q24.00 7.20 24.02 7.07L24.02 7.07L24.02 7.07Q24.14 7.01 24.26 7.04L24.26 7.04L24.26 7.04Q24.39 7.07 24.47 7.15L24.47 7.15L25.00 7.27L25.00 7.27Q24.95 7.94 24.91 8.58L24.91 8.58L24.91 8.58Q24.88 9.23 24.85 9.90L24.85 9.90L24.85 9.90Q24.82 10.18 24.82 10.48L24.82 10.48L24.82 10.48Q24.82 10.78 24.79 11.07L24.79 11.07L24.79 11.07Q24.81 11.09 24.81 11.12L24.81 11.12L24.81 11.12Q24.81 11.61 24.82 12.12L24.82 12.12L24.82 12.12Q24.82 12.63 24.76 13.13L24.76 13.13L24.76 13.13Q24.70 13.64 24.51 14.10L24.51 14.10L24.51 14.10Q24.32 14.56 23.94 14.92L23.94 14.92L23.94 14.92Q23.62 15.23 23.23 15.41L23.23 15.41L23.23 15.41Q22.83 15.58 22.41 15.64L22.41 15.64L22.41 15.64Q21.98 15.71 21.54 15.67L21.54 15.67L21.54 15.67Q21.10 15.62 20.71 15.47L20.71 15.47L20.71 15.47Q20.55 15.41 20.36 15.29L20.36 15.29L20.36 15.29Q20.17 15.18 20.00 15.02L20.00 15.02L20.00 15.02Q19.82 14.87 19.68 14.70L19.68 14.70L19.68 14.70Q19.54 14.53 19.49 14.38ZM29.78 7.92L29.78 7.92L29.78 7.92Q29.67 7.94 29.57 7.93L29.57 7.93L29.57 7.93Q29.47 7.92 29.37 7.92L29.37 7.92L29.37 7.92Q29.34 7.91 29.27 7.91L29.27 7.91L29.27 7.91Q29.19 7.91 29.16 7.92L29.16 7.92L29.16 7.92Q28.78 8.02 28.46 8.23L28.46 8.23L28.46 8.23Q28.14 8.44 27.88 8.71L27.88 8.71L27.88 8.71Q27.62 8.99 27.43 9.29L27.43 9.29L27.43 9.29Q27.23 9.59 27.10 9.86L27.10 9.86L27.10 9.86Q27.10 10.09 27.11 10.49L27.11 10.49L27.11 10.49Q27.12 10.88 27.12 11.29L27.12 11.29L27.12 11.29Q27.12 11.70 27.10 12.08L27.10 12.08L27.10 12.08Q27.09 12.45 27.05 12.66L27.05 12.66L27.05 12.66Q27.02 12.78 26.86 12.83L26.86 12.83L26.86 12.83Q26.70 12.88 26.50 12.89L26.50 12.89L26.50 12.89Q26.31 12.89 26.11 12.88L26.11 12.88L26.11 12.88Q25.91 12.87 25.82 12.85L25.82 12.85L25.82 12.85Q25.82 11.49 25.84 10.16L25.84 10.16L25.84 10.16Q25.86 8.82 25.86 7.46L25.86 7.46L25.86 7.46Q25.86 7.31 25.87 7.15L25.87 7.15L25.87 7.15Q25.89 6.99 25.90 6.82L25.90 6.82L25.90 6.82Q26.03 6.82 26.21 6.79L26.21 6.79L26.21 6.79Q26.39 6.76 26.50 6.79L26.50 6.79L26.50 6.79Q26.67 6.83 26.80 6.94L26.80 6.94L26.80 6.94Q26.94 7.04 27.06 7.28L27.06 7.28L27.06 7.28Q27.10 7.46 27.10 7.66L27.10 7.66L27.10 7.66Q27.10 7.85 27.12 8.04L27.12 8.04L27.13 8.04L27.13 8.04Q27.33 7.85 27.55 7.63L27.55 7.63L27.55 7.63Q27.76 7.41 28.07 7.23L28.07 7.23L28.07 7.23Q28.38 7.06 28.80 6.97L28.80 6.97L28.80 6.97Q29.22 6.89 29.82 6.99L29.82 6.99L29.82 6.99Q29.89 7.04 29.90 7.17L29.90 7.17L29.90 7.17Q29.92 7.31 29.90 7.46L29.90 7.46L29.90 7.46Q29.88 7.60 29.84 7.74L29.84 7.74L29.84 7.74Q29.81 7.87 29.78 7.92ZM31.88 4.93L31.88 4.93L31.88 4.93Q32.14 5.07 32.23 5.31L32.23 5.31L32.23 5.31Q32.33 5.54 32.27 5.79L32.27 5.79L32.27 5.79Q32.21 6.03 32.04 6.22L32.04 6.22L32.04 6.22Q31.86 6.41 31.60 6.45L31.60 6.45L31.60 6.45Q31.22 6.51 30.99 6.32L30.99 6.32L30.99 6.32Q30.76 6.13 30.71 5.86L30.71 5.86L30.71 5.86Q30.66 5.59 30.79 5.30L30.79 5.30L30.79 5.30Q30.93 5.01 31.29 4.86L31.29 4.86L31.29 4.86Q31.49 4.77 31.63 4.82L31.63 4.82L31.63 4.82Q31.77 4.87 31.88 4.93ZM30.93 8.22L30.93 8.22L30.93 8.22Q30.93 8.09 30.94 7.88L30.94 7.88L30.94 7.88Q30.95 7.66 30.97 7.57L30.97 7.57L30.97 7.57Q31.05 7.57 31.27 7.55L31.27 7.55L31.27 7.55Q31.49 7.52 31.57 7.55L31.57 7.55L31.57 7.55Q31.71 7.56 31.85 7.60L31.85 7.60L31.85 7.60Q31.99 7.64 32.10 7.66L32.10 7.66L32.10 7.66Q32.13 7.78 32.14 8.16L32.14 8.16L32.14 8.16Q32.16 8.53 32.16 9.02L32.16 9.02L32.16 9.02Q32.16 9.51 32.15 10.06L32.15 10.06L32.15 10.06Q32.14 10.61 32.13 11.11L32.13 11.11L32.13 11.11Q32.12 11.61 32.10 11.98L32.10 11.98L32.10 11.98Q32.09 12.35 32.07 12.47L32.07 12.47L32.07 12.47Q32.06 12.60 31.89 12.65L31.89 12.65L31.89 12.65Q31.71 12.70 31.50 12.71L31.50 12.71L31.50 12.71Q31.29 12.71 31.09 12.69L31.09 12.69L31.09 12.69Q30.90 12.67 30.84 12.67L30.84 12.67L30.84 12.67Q30.84 12.54 30.85 12.20L30.85 12.20L30.85 12.20Q30.86 11.86 30.87 11.40L30.87 11.40L30.87 11.40Q30.88 10.93 30.89 10.42L30.89 10.42L30.89 10.42Q30.90 9.91 30.91 9.46L30.91 9.46L30.91 9.46Q30.93 9.00 30.93 8.67L30.93 8.67L30.93 8.67Q30.93 8.33 30.93 8.22ZM37.44 8.05L37.44 8.05L37.44 8.05Q37.28 8.09 36.73 8.11L36.73 8.11L36.73 8.11Q36.18 8.13 35.50 8.15L35.50 8.15L35.50 8.15Q35.49 8.72 35.48 9.28L35.48 9.28L35.48 9.28Q35.48 9.84 35.45 10.47L35.45 10.47L35.45 10.47Q35.43 10.85 35.58 11.09L35.58 11.09L35.58 11.09Q35.73 11.33 36.08 11.52L36.08 11.52L36.08 11.52Q36.23 11.61 36.49 11.63L36.49 11.63L36.49 11.63Q36.75 11.66 36.95 11.45L36.95 11.45L36.95 11.45Q37.13 11.35 37.29 11.38L37.29 11.38L37.29 11.38Q37.45 11.41 37.58 11.51L37.58 11.51L37.58 11.51Q37.70 11.61 37.78 11.72L37.78 11.72L37.78 11.72Q37.86 11.83 37.87 11.90L37.87 11.90L37.87 11.90Q37.70 12.24 37.55 12.41L37.55 12.41L37.55 12.41Q37.39 12.59 37.23 12.66L37.23 12.66L37.23 12.66Q37.06 12.74 36.85 12.75L36.85 12.75L36.85 12.75Q36.65 12.75 36.39 12.75L36.39 12.75L36.39 12.75Q36.01 12.74 35.76 12.68L35.76 12.68L35.76 12.68Q35.52 12.61 35.24 12.39L35.24 12.39L35.24 12.39Q34.78 12.01 34.57 11.67L34.57 11.67L34.57 11.67Q34.36 11.33 34.28 10.96L34.28 10.96L34.28 10.96Q34.20 10.58 34.22 10.15L34.22 10.15L34.22 10.15Q34.24 9.72 34.27 9.17L34.27 9.17L34.27 9.17Q34.29 8.93 34.29 8.68L34.29 8.68L34.29 8.68Q34.30 8.43 34.30 8.16L34.30 8.16L34.30 8.16Q33.98 8.18 33.72 8.18L33.72 8.18L33.72 8.18Q33.46 8.18 33.33 8.18L33.33 8.18L33.33 8.18Q33.18 8.02 33.17 7.77L33.17 7.77L33.17 7.77Q33.15 7.52 33.18 7.15L33.18 7.15L33.18 7.15Q33.25 7.06 33.61 7.01L33.61 7.01L33.61 7.01Q33.96 6.97 34.34 6.97L34.34 6.97L34.34 6.97Q34.36 6.73 34.36 6.50L34.36 6.50L34.36 6.50Q34.37 6.26 34.38 6.03L34.38 6.03L34.38 6.03Q34.40 5.66 34.40 5.23L34.40 5.23L34.40 5.23Q34.40 4.80 34.51 4.44L34.51 4.44L34.51 4.44Q34.62 4.41 34.76 4.37L34.76 4.37L34.76 4.37Q34.90 4.33 35.04 4.30L35.04 4.30L35.04 4.30Q35.13 4.27 35.34 4.29L35.34 4.29L35.34 4.29Q35.56 4.31 35.64 4.31L35.64 4.31L35.64 4.31Q35.64 4.38 35.66 4.60L35.66 4.60L35.66 4.60Q35.67 4.82 35.66 4.94L35.66 4.94L35.66 4.94Q35.63 5.26 35.62 5.54L35.62 5.54L35.62 5.54Q35.62 5.82 35.59 6.19L35.59 6.19L35.59 6.19Q35.57 6.38 35.57 6.57L35.57 6.57L35.57 6.57Q35.56 6.76 35.55 6.96L35.55 6.96L35.55 6.96Q35.99 6.93 36.51 6.93L36.51 6.93L36.51 6.93Q37.03 6.93 37.39 6.99L37.39 6.99L37.39 6.99Q37.45 7.04 37.47 7.21L37.47 7.21L37.47 7.21Q37.49 7.38 37.49 7.56L37.49 7.56L37.49 7.56Q37.49 7.74 37.47 7.89L37.47 7.89L37.47 7.89Q37.45 8.04 37.44 8.05ZM39.86 4.93L39.86 4.93L39.86 4.93Q40.12 5.07 40.21 5.31L40.21 5.31L40.21 5.31Q40.31 5.54 40.25 5.79L40.25 5.79L40.25 5.79Q40.19 6.03 40.02 6.22L40.02 6.22L40.02 6.22Q39.84 6.41 39.58 6.45L39.58 6.45L39.58 6.45Q39.20 6.51 38.97 6.32L38.97 6.32L38.97 6.32Q38.74 6.13 38.69 5.86L38.69 5.86L38.69 5.86Q38.64 5.59 38.77 5.30L38.77 5.30L38.77 5.30Q38.91 5.01 39.27 4.86L39.27 4.86L39.27 4.86Q39.47 4.77 39.61 4.82L39.61 4.82L39.61 4.82Q39.75 4.87 39.86 4.93ZM38.91 8.22L38.91 8.22L38.91 8.22Q38.91 8.09 38.92 7.88L38.92 7.88L38.92 7.88Q38.93 7.66 38.95 7.57L38.95 7.57L38.95 7.57Q39.03 7.57 39.25 7.55L39.25 7.55L39.25 7.55Q39.47 7.52 39.55 7.55L39.55 7.55L39.55 7.55Q39.69 7.56 39.83 7.60L39.83 7.60L39.83 7.60Q39.97 7.64 40.08 7.66L40.08 7.66L40.08 7.66Q40.11 7.78 40.12 8.16L40.12 8.16L40.12 8.16Q40.14 8.53 40.14 9.02L40.14 9.02L40.14 9.02Q40.14 9.51 40.13 10.06L40.13 10.06L40.13 10.06Q40.12 10.61 40.11 11.11L40.11 11.11L40.11 11.11Q40.10 11.61 40.08 11.98L40.08 11.98L40.08 11.98Q40.07 12.35 40.05 12.47L40.05 12.47L40.05 12.47Q40.04 12.60 39.86 12.65L39.86 12.65L39.86 12.65Q39.69 12.70 39.48 12.71L39.48 12.71L39.48 12.71Q39.27 12.71 39.07 12.69L39.07 12.69L39.07 12.69Q38.88 12.67 38.82 12.67L38.82 12.67L38.82 12.67Q38.82 12.54 38.83 12.20L38.83 12.20L38.83 12.20Q38.84 11.86 38.85 11.40L38.85 11.40L38.85 11.40Q38.86 10.93 38.87 10.42L38.87 10.42L38.87 10.42Q38.88 9.91 38.89 9.46L38.89 9.46L38.89 9.46Q38.91 9.00 38.91 8.67L38.91 8.67L38.91 8.67Q38.91 8.33 38.91 8.22Z"></path></g><!----><!----></svg>